<svg width="142" height="61" viewBox="0 0 142 61" fill="none" xmlns="http://www.w3.org/2000/svg">
<path d="M26.606 33.1151L28.5476 38.8168C29.5981 41.9 30.5359 44.3658 30.6582 44.3658C30.6602 44.3658 30.662 44.3649 30.6636 44.3635C30.7979 44.2449 34.5982 33.209 34.5982 33.209H41.9635L33.0776 59.1005H27.9584C27.9584 59.1005 22.4943 43.3193 22.5167 43.2593L16.813 58.9016H11.7453L2.9714 33.1151L10.3009 33.1198C10.3009 33.1198 14.3159 44.5006 14.3694 44.5006C14.3696 44.5006 14.3696 44.5004 14.3698 44.5001L18.3761 33.1149H26.606V33.1151ZM0.469116 31.3221L1.27552 33.6922L10.0494 59.4785L10.4626 60.6931H11.7455H16.8132H18.0668L18.4963 59.5152L22.4567 48.6542C22.798 49.6471 23.1668 50.7173 23.5356 51.7866C24.8992 55.7403 26.2656 59.6865 26.2656 59.6865L26.6831 60.892H27.9586H33.0778H34.357L34.7722 59.682L43.658 33.7908L44.4725 31.4175H41.9635H34.5982H33.3204L32.9043 32.6258C32.2383 34.5595 31.3544 37.1115 30.5986 39.2714C30.4846 38.9438 30.366 38.5994 30.2432 38.2388L28.3019 32.5374L27.8885 31.3234H26.606H18.3763H17.1075L16.6863 32.5204L14.3454 39.1727C13.5722 36.9991 12.6758 34.4662 11.9905 32.5237L11.569 31.3292L10.3022 31.3283L2.97274 31.3236L0.469116 31.3221Z" fill="#FFE81F"/>
<path d="M140.04 33.0146L140.023 39.801C140.023 39.801 132.713 39.7766 128.996 39.7766C127.76 39.7766 126.921 39.7795 126.881 39.7867C126.241 39.9034 125.833 41.2651 126.015 41.8628C126.104 42.1652 126.774 43.1527 127.499 44.0597C128.223 44.9668 129.412 46.4515 130.137 47.358C132 49.6827 132.256 50.1416 132.428 51.4765C132.708 53.6444 131.683 55.9911 129.779 57.5385C127.872 59.0904 127.955 59.1014 113.794 59.1014C113.589 59.1014 113.383 59.1014 113.172 59.1014C104.559 59.0991 100.004 59.0277 99.3413 58.8799C98.1634 58.6134 96.2868 57.0817 91.3266 52.323C89.5425 50.613 87.8983 49.1157 87.8139 49.1153C87.8116 49.1153 87.8105 49.1166 87.8105 49.1189L87.7521 59.1018L79.7129 59.0662L79.6634 33.3178H89.8013H97.5921C102.996 33.5129 106.653 38.8961 105.925 42.3291C105.759 43.1082 105.338 44.2373 104.989 44.8372C104.27 46.0688 102.44 47.6498 100.955 48.3286C100.407 48.5767 99.9589 48.8656 99.9589 48.9686C99.9589 49.3515 101.764 51.1294 102.44 51.4118C103.018 51.6534 104.7 51.7072 112.117 51.7072C112.986 51.7072 113.775 51.7076 114.492 51.7076C121.948 51.7076 121.573 51.6539 122.148 50.422C122.552 49.5643 122.245 49.0515 119.408 45.8559C115.813 42.2794 116.19 40.5662 116.165 39.301C116.114 37.7849 117.308 33.0153 123.513 33.0153L140.04 33.0146ZM91.8772 44.9102C95.3192 44.9102 96.0178 44.8567 96.7503 44.5384C99.2226 43.4635 99.3547 40.2883 96.9832 38.8793C96.4639 38.5701 95.7964 38.519 92.0656 38.4986L87.7483 38.476C87.7839 38.5096 87.7346 44.65 87.7346 44.65C87.7346 44.65 88.816 44.9102 91.8772 44.9102ZM141.835 31.2231H140.039H123.512C119.922 31.2231 117.799 32.6402 116.65 33.8291C114.78 35.7623 114.34 38.1968 114.374 39.3444C114.376 39.4401 114.375 39.5381 114.374 39.6405C114.357 41.5057 114.632 43.6172 118.104 47.0855C118.791 47.8586 119.939 49.1545 120.373 49.7985C119.424 49.9152 117.018 49.9152 114.492 49.9152H113.419L112.116 49.9148C107.659 49.9148 103.9 49.902 103.13 49.7499C103.022 49.6796 102.871 49.5587 102.705 49.4145C104.245 48.4661 105.802 46.9962 106.535 45.7392C106.98 44.9749 107.471 43.6693 107.677 42.7008C108.134 40.5454 107.38 37.9453 105.661 35.7435C103.656 33.1747 100.738 31.6378 97.6564 31.5268L97.6239 31.5254H97.5915H89.8007H79.6628H77.8677L77.8713 33.3207L77.9207 59.0689L77.9243 60.849L79.7044 60.8568L87.7436 60.8924L89.5324 60.9003L89.5429 59.1114L89.5776 53.1309C89.7418 53.2868 89.9115 53.4487 90.0857 53.6158C95.5111 58.8201 97.3321 60.262 98.9452 60.6268C99.3883 60.7256 100.122 60.8893 113.17 60.8929H113.793C120.857 60.8929 124.403 60.8929 126.512 60.6891C128.928 60.4555 129.705 59.9075 130.87 58.9592L130.909 58.9276C133.302 56.9822 134.564 54.039 134.204 51.2465C133.97 49.4304 133.489 48.6759 131.534 46.2375L130.954 45.5119C130.273 44.6612 129.45 43.6337 128.899 42.9422C128.454 42.386 128.105 41.8922 127.894 41.5688C128.171 41.5681 128.53 41.5677 128.995 41.5677C132.667 41.5677 139.943 41.5919 140.016 41.5923L141.809 41.5981L141.814 39.8048L141.831 33.0182L141.835 31.2231ZM89.5373 43.0533C89.5402 42.6007 89.5429 42.0933 89.5458 41.5849C89.5481 41.1371 89.5501 40.6883 89.5507 40.2771L92.0559 40.2901C93.4956 40.298 95.662 40.3098 96.0844 40.4296C96.6234 40.7568 96.9241 41.2627 96.8914 41.7867C96.8735 42.0698 96.7387 42.5902 96.0358 42.8954C95.6439 43.0656 95.0191 43.1187 91.8772 43.1187C90.8807 43.1187 90.1119 43.0898 89.5373 43.0533Z" fill="#FFE81F"/>
<path d="M63.3744 32.9091L72.3968 58.868L65.0449 58.9016L63.8245 55.0028L50.6793 54.8974L49.5193 58.8008L42.2413 58.7245L51.1496 32.9203L63.3744 32.9091ZM57.4622 36.7152C57.4436 36.7897 56.3102 39.8993 55.1731 43.0087C54.0265 46.1438 52.8762 49.279 52.8603 49.3034C52.8603 49.3036 52.86 49.3036 52.8603 49.3036C52.8603 49.3036 52.8603 49.3036 52.8603 49.3034C52.8907 49.2944 56.9619 49.2855 59.5712 49.2855C60.7924 49.2855 61.693 49.2875 61.7098 49.292C61.7101 49.2929 61.7101 49.2931 61.7101 49.2931C61.7101 49.2931 61.7101 49.2929 61.7101 49.2924C61.7101 49.2924 61.7101 49.2924 61.7098 49.292C61.6641 49.1735 57.4754 36.8665 57.4622 36.7152C57.4624 36.7143 57.4624 36.7138 57.4624 36.7138C57.4622 36.7138 57.4622 36.7143 57.4622 36.7152ZM64.6479 31.1165L63.373 31.1176L51.1482 31.129L49.8727 31.1301L49.4564 32.3363L40.5481 58.1404L39.7368 60.4904L42.223 60.5162L49.501 60.5925L50.852 60.6067L51.2369 59.3118L52.0131 56.7003L62.5055 56.7843L63.3358 59.4375L63.7311 60.7L65.0539 60.6942L72.4056 60.6606L74.9125 60.649L74.0893 58.2811L65.0669 32.3222L64.6479 31.1165ZM55.4389 47.4958C55.7782 46.5711 56.2352 45.3213 56.8558 43.6241C57.0504 43.092 57.2284 42.605 57.3916 42.1584C57.5401 42.5964 57.7018 43.073 57.8774 43.5912C58.022 44.018 58.6578 45.891 59.2031 47.494C57.5818 47.494 56.3613 47.4942 55.4389 47.4958Z" fill="#FFE81F"/>
<path d="M66.4155 1.92528V8.3299H53.5884V27.9178H45.9409V8.31423L30.9684 8.35678C29.1634 8.35678 28.9216 9.79446 28.9216 10.3453C28.9216 11.0216 29.3627 11.6979 31.7858 14.7659C33.3578 16.7589 34.8022 18.7475 34.9925 19.1819C36.0316 21.5736 34.688 25.2999 32.2403 26.8137C30.4959 27.8916 30.7939 27.918 17.8393 27.918C17.1734 27.918 16.4742 27.918 15.7361 27.918H1.7915V20.7229H23.715L24.3622 20.2727C24.7989 19.9682 25.0519 19.5494 25.1482 18.9761C25.2826 18.152 25.2132 18.0446 22.5058 14.9945C19.3057 11.3891 18.9675 10.7307 19.1333 8.42866C19.3214 5.80187 21.6638 1.98597 25.7573 1.98597L66.4155 1.92528ZM68.207 0.131088L66.4126 0.133776L25.7544 0.194238C23.4125 0.194238 21.2374 1.20599 19.6315 3.04318C18.3295 4.53281 17.475 6.49832 17.346 8.30057C17.1281 11.3262 17.8246 12.4195 21.1655 16.1836C22.1351 17.2758 23.0571 18.3146 23.3648 18.7558C23.3599 18.7735 23.3554 18.7849 23.3527 18.7914C23.3493 18.7941 23.3442 18.7981 23.337 18.803L23.1529 18.9311H1.7915H0V20.7226V27.9178V29.7093H1.7915H15.7361H16.8417H17.8393C24.2265 29.7093 27.3791 29.7032 29.2364 29.5671C31.3616 29.4114 32.0397 29.0469 33.0555 28.416L33.1822 28.3374C36.376 26.3621 38.022 21.658 36.6358 18.4676C36.2081 17.4917 33.5 14.0457 33.1925 13.656C32.3425 12.5796 30.9393 10.8031 30.7171 10.2889C30.7225 10.2457 30.733 10.2009 30.7442 10.1698C30.7812 10.1604 30.8519 10.1478 30.9684 10.1478L44.1494 10.1104V27.9173V29.7088H45.9409H53.5884H55.3799V27.9173V10.121H66.4155H68.207V8.32946V1.92483V0.131088Z" fill="#FFE81F"/>
<path d="M87.2551 2.13333L96.2529 28.1594L88.9145 28.1191L87.7232 24.2203L74.6364 24.1621L73.4673 27.9175H65.9947L74.8937 2.13333H87.2551ZM76.7724 18.6199L85.6853 18.6087C85.6855 18.6087 85.6855 18.6089 85.6855 18.6089C85.716 18.6089 81.3541 5.79942 81.325 5.79046C81.2932 5.78934 76.6718 18.6199 76.7724 18.6199ZM88.5313 0.341827H87.2551H74.8937H73.6171L73.2006 1.54885L64.3013 27.3333L63.4812 29.7093H65.9949H73.4677H74.7865L75.1784 28.4501L75.9534 25.9597L86.3961 26.006L87.2021 28.6427L87.5875 29.9032L88.9058 29.9106L96.2442 29.9509L98.774 29.9648L97.9475 27.574L88.9497 1.54796L88.5313 0.341827ZM79.2612 16.8252C79.8139 15.2516 80.5833 13.0951 81.2798 11.1569C81.94 13.0926 82.6702 15.2427 83.203 16.8203L79.2612 16.8252Z" fill="#FFE81F"/>
<path d="M112.526 2.13333C118.331 2.13333 122.359 2.21619 123.134 2.35055C124.926 2.66183 126.545 3.61804 127.758 5.08707C129.028 6.62329 129.319 7.3578 129.485 9.46282C129.723 12.4345 128.309 14.9986 125.521 16.6624C124.708 17.1484 123.873 17.6209 123.665 17.7149C123.345 17.8605 123.387 17.9993 123.96 18.6712C124.33 19.1033 124.97 19.7192 125.382 20.0394L126.135 20.6239L140.037 20.8232L140.173 27.9175H131.65C125.057 27.9175 122.948 27.8571 122.33 27.6488C121.405 27.3353 119.179 25.4498 114.655 21.1457L111.426 18.0732L111.46 27.9175H103.165V2.13333H112.526ZM111.304 13.7266H115.709C119.995 13.7266 120.129 13.7132 120.741 13.2541C121.834 12.4345 122.221 11.5902 122.105 10.2936C121.986 8.95672 121.471 8.26027 120.179 7.70043C119.451 7.38244 118.75 7.33093 115.315 7.33093H111.304V13.7266ZM112.526 0.341827H103.166H101.374V2.13333V27.9175V29.709H103.166H111.461H113.259L113.252 27.9113L113.233 22.2645L113.421 22.4434C119.016 27.7671 120.667 28.9763 121.755 29.3454C122.591 29.6273 123.991 29.709 131.651 29.709H140.174H142L141.965 27.8831L141.829 20.7887L141.795 19.0568L140.064 19.0319L126.761 18.8413L126.482 18.6248C126.394 18.5556 126.286 18.4642 126.171 18.3608C126.271 18.3017 126.363 18.2472 126.442 18.2002C129.801 16.1953 131.562 12.9585 131.272 9.3204C131.078 6.86626 130.64 5.76068 129.14 3.94588C127.665 2.16132 125.642 0.967957 123.441 0.585695C122.219 0.373626 116.078 0.341827 112.526 0.341827ZM113.095 9.12244H115.315C118.456 9.12244 119.078 9.17461 119.461 9.34212C120.189 9.65742 120.263 9.81037 120.32 10.4522C120.378 11.09 120.299 11.3466 119.666 11.8209C119.645 11.8363 119.629 11.8484 119.616 11.8581C119.198 11.9353 117.648 11.9353 115.709 11.9353H113.096L113.095 9.12244Z" fill="#FFE81F"/>
</svg>
